HIERARCHY
ROOT Hips
{
	OFFSET 0.000000 0.000000 0.000000
	CHANNELS 6 Xposition Yposition Zposition Zrotation Yrotation Xrotation 
	JOINT LHipJoint
	{
		OFFSET 0.000000 0.000000 0.000000
		CHANNELS 3 Zrotation Yrotation Xrotation
		JOINT LeftUpLeg
		{
			OFFSET 1.363060 -1.794630 0.839290
			CHANNELS 3 Zrotation Yrotation Xrotation
			JOINT LeftLeg
			{
				OFFSET 2.448110 -6.726130 0.000000
				CHANNELS 3 Zrotation Yrotation Xrotation
				JOINT LeftFoot
				{
					OFFSET 2.562200 -7.039590 0.000000
					CHANNELS 3 Zrotation Yrotation Xrotation
					JOINT LeftToeBase
					{
						OFFSET 0.157640 -0.433110 2.322550
						CHANNELS 3 Zrotation Yrotation Xrotation
						End Site
						{
							OFFSET 0.000000 0.000000 0.000000
						}
					}
				}
			}
		}
	}
	JOINT RHipJoint
	{
		OFFSET 0.000000 0.000000 0.000000
		CHANNELS 3 Zrotation Yrotation Xrotation
		JOINT RightUpLeg
		{
			OFFSET -1.305520 -1.794630 0.839290
			CHANNELS 3 Zrotation Yrotation Xrotation
			JOINT RightLeg
			{
				OFFSET -2.542530 -6.985550 0.000000
				CHANNELS 3 Zrotation Yrotation Xrotation
				JOINT RightFoot
				{
					OFFSET -2.568260 -7.056230 0.000000
					CHANNELS 3 Zrotation Yrotation Xrotation
					JOINT RightToeBase
					{
						OFFSET -0.164730 -0.452590 2.363150
						CHANNELS 3 Zrotation Yrotation Xrotation
						End Site
						{
							OFFSET 0.000000 0.000000 0.000000
						}
					}
				}
			}
		}
	}
}
MOTION
Frames: 19
Frame Time: 0.008333
-1.092267 16.379705 1.723295 -155.393838 79.357433 -128.131354 -13.112639 0.113545 -0.575733 1.874525 -11.074532 -18.676204 0.002513 2.535015 46.876711 1.926581 11.263741 -12.230169 -0.921900 -0.000000 -45.346500 6.257787 0.783106 1.622241 -1.264635 10.262643 -48.303608 2.679586 -1.069821 20.708353 1.479458 9.598971 4.904802 1.788000 -0.000000 -64.865299
-0.958870 16.345983 1.735216 -154.120208 78.841439 -126.880801 -13.370222 0.015293 -0.669722 2.234531 -10.387207 -19.576917 0.125142 2.695529 49.129661 2.171637 12.826701 -12.972835 -1.177900 0.000000 -36.508000 6.101694 0.645136 1.485066 -0.104145 10.291819 -48.933062 2.669809 -1.289954 23.066320 1.424626 9.267232 4.133487 1.609900 0.000001 -63.891900
-0.830255 16.321397 1.747774 -153.191356 78.352649 -126.002852 -13.584283 -0.095058 -0.804862 2.449725 -9.665259 -20.451079 0.233350 2.850635 51.279366 2.436043 14.459557 -13.846301 -1.507200 -0.000000 -26.559300 5.960549 0.527425 1.370073 0.855705 10.472492 -49.327030 2.638333 -1.463900 25.141314 1.332483 8.743016 3.071182 1.365900 0.000000 -62.952800
-0.706139 16.306487 1.761324 -152.636656 77.893359 -125.525055 -13.750966 -0.210940 -0.973267 2.516988 -8.943250 -21.286960 0.334082 2.996760 53.265081 2.711734 16.130744 -14.668613 -1.871300 0.000000 -17.484500 5.840081 0.435043 1.274338 1.599025 10.783031 -49.471274 2.589343 -1.590259 26.897924 1.205037 8.056099 1.811553 1.090300 -0.000000 -62.095400
-0.586000 16.301430 1.775913 -152.492003 77.464897 -125.478637 -13.868597 -0.324094 -1.163748 2.430190 -8.260936 -22.078344 0.433877 3.130564 55.055131 2.987651 17.799505 -15.268410 -2.211600 -0.000000 -10.834500 5.746484 0.371790 1.192952 2.121458 11.183411 -49.368995 2.526434 -1.671421 28.318947 1.047251 7.246009 0.458363 0.816800 0.000000 -61.340900
-0.469214 16.305987 1.791188 -152.781052 77.066478 -125.881587 -13.938361 -0.427140 -1.366260 2.182895 -7.640628 -22.833030 0.527058 3.251065 56.660049 3.252244 19.396936 -15.696987 -2.520000 0.000000 -6.252600 5.684567 0.338275 1.121470 2.433322 11.623553 -49.037885 2.452738 -1.712462 29.402899 0.866950 6.355325 -0.883410 0.571200 0.000000 -60.693200
-0.355149 16.319595 1.806413 -153.504729 76.690783 -126.726668 -13.964769 -0.514544 -1.570225 1.776471 -7.091833 -23.567994 0.608354 3.357503 58.091917 3.496088 20.863035 -16.020510 -2.798900 -0.000000 -3.243000 5.656980 0.331839 1.056230 2.556857 12.050241 -48.506983 2.371185 -1.720119 30.159936 0.673987 5.424763 -2.116641 0.368000 -0.000000 -60.153300
-0.243169 16.341449 1.820773 -154.634897 76.325569 -127.975859 -13.955560 -0.583031 -1.765463 1.224158 -6.610765 -24.306899 0.673500 3.449953 59.363797 3.711986 22.147785 -16.306841 -3.059000 0.000000 -1.236700 5.663121 0.346713 0.994877 2.527701 12.414543 -47.812328 2.285209 -1.701426 30.607750 0.479279 4.491886 -3.160444 0.210400 0.000000 -59.720501
-0.132723 16.370584 1.833272 -156.110644 75.954928 -129.557729 -13.920087 -0.631669 -1.942646 0.549611 -6.185281 -25.074651 0.720986 3.528786 60.485478 3.894887 23.216172 -16.588279 176.696500 0.000000 -0.078600 5.699846 0.375340 0.936076 2.390014 12.673804 -46.994076 2.199111 -1.663017 30.770165 0.293545 3.591519 -3.958745 0.093301 -0.000000 -59.394300
-0.023478 16.405934 1.842857 -157.839664 75.560892 -131.371483 -13.867993 -0.661493 -2.094503 -0.218007 -5.797976 -25.891538 0.751032 3.594643 61.463498 4.041782 24.047302 -16.872334 176.471000 -0.000000 -0.899700 5.762045 0.409645 0.878851 2.191325 12.793975 -46.090951 2.118161 -1.610551 30.675251 0.126403 2.757008 -4.483699 0.006500 0.000000 -59.171400
0.084881 16.446483 1.848620 -159.711123 75.128872 -133.298806 -13.807702 -0.675305 -2.216601 -1.044990 -5.427359 -26.774632 0.764119 3.648695 62.303935 4.151619 24.631661 -17.163796 176.268200 0.000001 -1.398400 5.843392 0.441973 0.822875 1.979164 12.752504 -45.139365 2.048260 -1.548157 30.352014 -0.014793 2.017197 -4.735929 -0.060600 -0.000001 -59.043200
0.192302 16.491287 1.849920 -161.610066 74.650453 -135.223084 -13.745589 -0.676512 -2.308170 -1.900985 -5.051848 -27.729089 0.761712 3.692209 63.008324 4.225156 24.974855 -17.445861 176.098999 0.000000 -1.618999 5.937503 0.466508 0.766952 1.793811 12.538099 -44.167495 1.995229 -1.478801 29.831610 -0.124955 1.397555 -4.741253 -0.116500 0.000000 -58.994300
0.298765 16.539559 1.846395 -163.436495 74.121440 -137.044453 -13.684632 -0.669734 -2.371834 -2.761179 -4.653157 -28.751475 0.745197 3.725818 63.575357 4.265050 25.094541 -17.704027 175.971799 0.000000 -1.631399 6.039136 0.478742 0.709779 1.665288 12.151075 -43.196334 1.964130 -1.404607 29.143528 -0.201769 0.915489 -4.542496 -0.165600 -0.000000 -59.006000
0.403945 16.590681 1.838188 -165.119680 73.548876 -138.698837 -13.626556 -0.658243 -2.412721 -3.606402 -4.215130 -29.829059 0.715732 3.751026 64.002854 4.275317 25.019023 -17.921920 175.893000 0.000000 -1.458600 6.143172 0.476815 0.649524 1.612686 11.604481 -42.236730 1.958234 -1.326598 28.318121 -0.245252 0.579977 -4.191973 -0.208400 0.000000 -59.059400
0.507601 16.644127 1.825713 -166.617212 72.940845 -140.152441 -13.570654 -0.645579 -2.437860 -4.425444 -3.728178 -30.941419 0.674339 3.768514 64.286923 4.261205 24.784083 -18.089369 175.863300 0.000001 -1.140500 6.246057 0.460063 0.584392 1.641902 10.920572 -41.291143 1.978803 -1.245564 27.382657 -0.257638 0.389731 -3.741455 -0.242900 0.000000 -59.139200
0.609348 16.699417 1.809641 -167.914616 72.309530 -141.402315 -13.515806 -0.633858 -2.454981 -5.212552 -3.187664 -32.063256 0.621371 3.779410 64.424506 4.228767 24.429361 -18.208393 175.876000 0.000000 -0.758800 6.344733 0.429710 0.512584 1.747852 10.129907 -40.353893 2.024498 -1.161792 26.363192 -0.242916 0.333450 -3.235876 -0.266500 0.000000 -59.235399
0.709059 16.756248 1.790832 -169.023833 71.664183 -142.469882 -13.458589 -0.625873 -2.471780 -5.965999 -2.597090 -33.167743 0.557598 3.783434 64.411525 4.183913 23.994502 -18.276601 175.925000 -0.000000 -0.299100 6.438605 0.387429 0.433312 1.914962 9.268102 -39.415550 2.091312 -1.075895 25.280224 -0.206709 0.389428 -2.706229 -0.277600 0.000000 -59.342000
0.806530 16.814209 1.770224 -169.966853 71.015609 -143.389327 -13.397457 -0.621625 -2.493867 -6.685066 -1.962546 -34.229044 0.482380 3.781556 64.248799 4.132271 23.512801 -18.319315 -4.007100 0.000000 -0.072700 6.526702 0.336069 0.346820 2.123256 8.372880 -38.461404 2.173059 -0.987922 24.152924 -0.155249 0.529265 -2.169154 -0.276300 -0.000000 -59.461500
0.901856 16.872962 1.748702 -170.779057 70.369001 -144.202499 -13.329496 -0.622368 -2.525825 -7.370318 -1.297309 -35.224715 0.396187 3.773193 63.935414 4.078141 23.012415 -18.341834 -3.928000 -0.000001 -0.395200 6.610222 0.278477 0.253743 2.347803 7.479944 -37.478820 2.262013 -0.898678 22.995242 -0.095189 0.719975 -1.626675 -0.264900 -0.000000 -59.593200
